<svg xmlns="http://www.w3.org/2000/svg" xmlns:xlink="http://www.w3.org/1999/xlink" viewBox="0 0 750 500"><defs><style>.cls-1{isolation:isolate;}.cls-2{fill:url(#linear-gradient);}.cls-3{fill:url(#linear-gradient-3);}.cls-4{fill:#d2e2ca;}.cls-5{fill:url(#linear-gradient-4);}.cls-6{fill:url(#linear-gradient-5);}.cls-7{fill:url(#linear-gradient-6);}.cls-8{fill:url(#linear-gradient-7);}.cls-9{fill:#1a6357;}.cls-10{fill:url(#linear-gradient-8);}.cls-11{fill:url(#linear-gradient-9);}.cls-12{fill:url(#linear-gradient-10);}.cls-13{fill:url(#linear-gradient-11);}.cls-14{fill:#021e22;}.cls-15{mix-blend-mode:overlay;fill:url(#radial-gradient);}</style><linearGradient id="linear-gradient" x1="375" y1="-1.43" x2="375" y2="257.82" gradientUnits="userSpaceOnUse"><stop offset="0" stop-color="#5bab9c"/><stop offset="0.16" stop-color="#7db9a4"/><stop offset="0.37" stop-color="#a3c9ad"/><stop offset="0.53" stop-color="#bad3b2"/><stop offset="0.64" stop-color="#c3d7b4"/><stop offset="1" stop-color="#e8efe2"/></linearGradient><linearGradient id="linear-gradient-3" x1="373.46" y1="105.71" x2="375.91" y2="202.51" gradientUnits="userSpaceOnUse"><stop offset="0" stop-color="#fff"/><stop offset="0.25" stop-color="#fff" stop-opacity="0.77"/><stop offset="0.82" stop-color="#fff" stop-opacity="0.19"/><stop offset="1" stop-color="#fff" stop-opacity="0"/></linearGradient><linearGradient id="linear-gradient-4" x1="485.83" y1="296.37" x2="470.66" y2="229.8" gradientUnits="userSpaceOnUse"><stop offset="0" stop-color="#d2e2ca"/><stop offset="1" stop-color="#9fc9b5"/></linearGradient><linearGradient id="linear-gradient-5" x1="350.91" y1="240.02" x2="365.86" y2="322.2" gradientUnits="userSpaceOnUse"><stop offset="0" stop-color="#129483"/><stop offset="1" stop-color="#3eaf98"/></linearGradient><linearGradient id="linear-gradient-6" x1="327.96" y1="405.58" x2="298.6" y2="285.79" gradientUnits="userSpaceOnUse"><stop offset="0" stop-color="#bed5b3"/><stop offset="1" stop-color="#3eaf98" stop-opacity="0.3"/></linearGradient><linearGradient id="linear-gradient-7" x1="615.85" y1="383" x2="577.57" y2="226.83" xlink:href="#linear-gradient-6"/><linearGradient id="linear-gradient-8" x1="212.5" y1="246.2" x2="170.89" y2="315.83" gradientUnits="userSpaceOnUse"><stop offset="0" stop-color="#bed5b3"/><stop offset="1" stop-color="#3eaf98" stop-opacity="0"/></linearGradient><linearGradient id="linear-gradient-9" x1="384.75" y1="311.2" x2="346.83" y2="490.76" gradientUnits="userSpaceOnUse"><stop offset="0" stop-color="#093f35"/><stop offset="1" stop-color="#1a6357"/></linearGradient><linearGradient id="linear-gradient-10" x1="91.76" y1="329.03" x2="76.82" y2="413.16" gradientUnits="userSpaceOnUse"><stop offset="0" stop-color="#002a2e"/><stop offset="0.99" stop-color="#075649"/></linearGradient><linearGradient id="linear-gradient-11" x1="634.78" y1="412.66" x2="603.04" y2="529.3" xlink:href="#linear-gradient-10"/><radialGradient id="radial-gradient" cx="375" cy="170.22" r="167.86" gradientTransform="translate(230.2 -215.31) rotate(45)" gradientUnits="userSpaceOnUse"><stop offset="0.15" stop-color="#fffaf2"/><stop offset="0.24" stop-color="#fffaf2" stop-opacity="0.82"/><stop offset="0.35" stop-color="#fffaf2" stop-opacity="0.61"/><stop offset="0.46" stop-color="#fffaf2" stop-opacity="0.42"/><stop offset="0.58" stop-color="#fffaf2" stop-opacity="0.27"/><stop offset="0.69" stop-color="#fffaf2" stop-opacity="0.15"/><stop offset="0.8" stop-color="#fffaf2" stop-opacity="0.07"/><stop offset="0.9" stop-color="#fffaf2" stop-opacity="0.02"/><stop offset="1" stop-color="#fffaf2" stop-opacity="0"/></radialGradient></defs><g class="cls-1"><g id="BACKGROUND"><rect class="cls-2" width="750" height="500"/><rect class="cls-2" width="750" height="500"/><circle class="cls-3" cx="375" cy="166.45" r="57.98"/><path class="cls-4" d="M278.62,281.67c-.26-2-2.8-4.31-3.74-5.4a58,58,0,0,1-4.11-5.37,50.75,50.75,0,0,1-3.23-6,3.69,3.69,0,0,0-.85-1.21c-.61-.51-1.32-.4-2-.62-2-.68-2.82-3.37-4.14-5.43-1.14-1.78-2.35-1.23-3.63-.36a17.13,17.13,0,0,0-4,3.64c-.87,1.08-1.68,2.74-2.94,2.51-1.84-.33-2.94-3.62-4.68-3.91-1.33-.22-2.39,1.33-3.45,2.31-.69.63-1.31,1.37-2,2-2.77,2.42-4.57,6.74-7.4,9.16s-8.77,6.31-11,1.82c-.24-.5-.46-1.88-.68-2.14-.49-.57-1.92-.15-2.45-.08-1.4.2-2.56,1.13-3.89,1.51a5.72,5.72,0,0,1-4.43-.95c-1.57-1.1-2.53-4-4.05-5-1.19-.79-3.67-.17-4.8.39-1.39.68-2.58,1.88-4,2.55a8.09,8.09,0,0,1-4,.72,8.37,8.37,0,0,0-4.87,1.68c-1.28.87-2.41,2.26-3.69,3.12a12.83,12.83,0,0,0-2.75,2.88c-1.22,1.41-2.84-.51-4.41.1a14.05,14.05,0,0,0-4.6,3.45c-1,1.1-1.7,3-2.67,4.19a7,7,0,0,1-3.08,2.13,18.74,18.74,0,0,0-4.47,3L207.58,341l75.72-59.13Z" transform="translate(0 0)"/><path class="cls-5" d="M749.58,172.66a7.65,7.65,0,0,1-1.71-1.17c-.6-.48-1.15-1.18-1.73-1.73-.79-.74-1-.61-1.85-1.11-.56-.32-1.14-1.68-1.7-2a4.74,4.74,0,0,0-2.34-.15,12.7,12.7,0,0,0-5.73.84,26,26,0,0,0-8.08,5.22c-1.54,1.58-3,3.36-4.59,4.86s-3.22,2.45-4.81,4.16c-1.88,2-3.88,4-5.82,5.82-2.33,2.22-4.89,3.46-7.16,5.83a40.52,40.52,0,0,1-6.65,5.32c-1.65,1.1-2.94,2.9-4.52,4.2-3.37,2.77-6.55,6.43-10,9-.24.19-.48.36-.73.53-1.72,1.18-3.37,2.59-5.07,3.85a42.28,42.28,0,0,1-4.54,2.42c-1.6.93-3.22,1.65-4.82,2.56s-2.93,2.4-4.45,3.41c-2,1.32-4,2.45-6,3.66a50.07,50.07,0,0,0-4.54,3c-5.57,4.21-11.91,3.93-17.92,4.93-2.9.49-5.87.39-8.68,1.65A58,58,0,0,0,619,242c-3,1.92-5.68,5-8.42,7.59a34.52,34.52,0,0,1-10.9,6.9c-1,.44-2.43-1.66-3.34-2.29-1.83-1.29-3.28-3.44-5-5.17a26.56,26.56,0,0,1-3.1-4l-.35-.54c-.55-.86-1.43-2.6-2.18-3s-1.39,0-2.07-.22a10,10,0,0,1-1.79-1.24c-1.41-1.08-3-2.18-4.44-3.46a26.29,26.29,0,0,0-4.8-3.83c-1.38-.74-2.61-.43-4-.53s-2.73-1.61-4-2.88a15.65,15.65,0,0,1-1.59-2.33c-.48-.73-1.3-.94-1.87-1.47-1.28-1.18-2.38-3.51-3.94-4.07s-3,.36-4.25,1.2c-3.14,2.05-5.65,5.38-8.55,8-2.29,2.07-5.65,2.63-7.4,6.1-.77,1.54-.62,2.23-2,2.32a5.52,5.52,0,0,1-3.19-.79,8.52,8.52,0,0,1-2.78-2.32c-.45-.54-1-1.44-1.54-1.58-.86-.2-3.54,1.64-4.23,2.51-.91,1.13-.73,1.64-2.14,1.33a8.85,8.85,0,0,1-2.72-1.48c-1.79-1.16-2.65-.18-4.39,0-1.44.15-2.55,1-3.69,2.49a23.33,23.33,0,0,1-2.4,2.62,27,27,0,0,0-5,5.57l26.42,43.51H750V172.68A.86.86,0,0,1,749.58,172.66ZM362.84,261.82a28.37,28.37,0,0,0-3.57-2.7c-.42-.29-.84-.59-1.25-.9a15,15,0,0,1-4-4.22c-.48-.75-1-1.5-1.45-2.24s-.74-1.54-1.11-2.16a14.18,14.18,0,0,0-2.84-2.8,45,45,0,0,1-3.47-3.44,30.68,30.68,0,0,0-2.34-2.91c-.64-.57-1.35-.85-2-1.45l-1.21-1.61a5.18,5.18,0,0,0-1.79-.89,10.68,10.68,0,0,1-1.7-2.11c-1.6-2.44-3.48-4.39-5.78-3.24a6.71,6.71,0,0,0-3,2.47c-1,1.35-1.59,1.85-2.93,1.57-2.32-.49-3.79-3.91-5.92-4.66a4.78,4.78,0,0,0-2.87.22c-.73.32-1.32,1.56-2.08,2-1.94,1-4.34-.57-6.31.32-1.51.69-3.38,3.45-4.55,5.15a51.24,51.24,0,0,0-3.83,6.13,10.41,10.41,0,0,1-2.06,3.06c-1.31,1.23-3.28,1.62-4.8,2.06-2.54.73-4.6,2.34-6.95,3.85-3.23,2.08-6.3,4.7-9.5,6.89-.39.27-1,.33-1.35.66-.81.71-.92,1.72-1.59,2.6-1,1.31-2.18,2.39-3.21,3.75l-.5.64a64.06,64.06,0,0,1-12.05,12.12,18.64,18.64,0,0,0-4.28,3.84,20.7,20.7,0,0,1-2.51,3.28c-.79.67-1.66.81-2.47,1.41-1,.74-2,2-2.94,2.9-1.77,1.65-3.66,2.85-5.23,5a44.38,44.38,0,0,1-3.22,3.64c-1.26,1.41-2.37,3-3.52,4.57a23.71,23.71,0,0,1-2.1,2.24c-.9.95-1.61,2.26-2.51,3.17-1.26,1.28-2.86,1.62-4.13,2.94s-2.95,2.12-4.24,3.65a6.57,6.57,0,0,1-3.22,2.37c-.92.25-1.8-.05-2.71.26-.69.24-1.27.91-2,1.21a19.69,19.69,0,0,1-3.93,1.73c-.78.15-1.53-.2-2.32.07a16.76,16.76,0,0,0-2.69,1.68c-1.4,1-2.77,2-2.77,2L210,339.1l15.26,20.63,11.51,15.57,23.68-11.79L384,302C382.62,301.79,363.94,262.86,362.84,261.82Z" transform="translate(0 0)"/><path class="cls-6" d="M750,245V500H0V453.06l108.1-44.8,28.65-11.87h0l13.2-5.48,16.9-7,7-2.91h0l24.61-10.21h0l18-7.47,8.66-3.59,8-3.33a8.33,8.33,0,0,0,6.17-1.9c.87-.71,1.53-1.67,2.31-2.4l.24-.21h0a1.74,1.74,0,0,1,.27-.22,2.6,2.6,0,0,1,.45-.28h0a3.13,3.13,0,0,1,.6-.24,26.93,26.93,0,0,1,4.33-.77c1.74-.21,3.54-2.33,5.21-3.3a31.65,31.65,0,0,1,5-2.29c2.23-.82,4.59-2,6.81-.8,1.81,1,3.22,3,5.12,3.69a6.78,6.78,0,0,0,5.87-.38c2.31-1.4,4.53-3.69,6.7-5.5,1.84-1.53,3.74-2.91,5.57-4.46,2.07-1.77,3.55-3.51,5.87-4.56,3.47-1.58,6.64-5.15,9.46-8.57a168.65,168.65,0,0,1,11.81-13.45c1.45-1.4,3.05-2.45,4.48-3.88,1.84-1.84,3.32-4.52,4.95-6.75a64.07,64.07,0,0,1,5.62-6.69c2.83-2.93,5.77-4.85,8.17-8.7a26,26,0,0,1,3.35-4.42c1.21-1.24,2.23-2.86,3.45-4s2.36-2.44,3.58-3.59a13.31,13.31,0,0,0,1.7-2.1c.7-.94,1-.83,1.84-1.26,3.35-1.74,4.59-6.48,7-10.08a.75.75,0,0,0,.07-.12,15,15,0,0,0,.87-1.5c.33-.62.65-1.24,1-1.82,0,0,0,0,0-.06a7.39,7.39,0,0,1,.42-.66,6,6,0,0,1,1.36-1.47,9.21,9.21,0,0,1,2-.92c.62-.28,1.05-1.09,1.56-1.38,2.17-1.21,4.12.91,6.05,1.77.86.38,1.64.89,2.45,1.16a10.37,10.37,0,0,0,3.47,0c1.2-.06,2.08-.92,3.21-1.36a3.74,3.74,0,0,1,1.48-.17c.81,0,1-.31,1.59-.6,1.28-.59,1.53-.55,2.39-2.46a57.18,57.18,0,0,0,3.91-10.79,14.49,14.49,0,0,1,2.44-5.94,53,53,0,0,1,4.46-5,68,68,0,0,0,5-4.95c1.43-1.63,2.7-4,4.23-5.34s3.08-2.07,4.62-3.18c1.82-1.31,3.21-3.48,4.95-4.87s3.18-4.51,4.41-7c.76-1.53,1.64-3.25,2.48-4.64.67-1.11,1.54-1.76,2.24-2.82a3.59,3.59,0,0,1,2.43-1.91,6.46,6.46,0,0,0,1.25-.78c.21-.14.46.16.7,0s.5-.88.79-1.31c.4-.59.88-1.18,1.48-.93l.22.07.14,0c1.4.26,2.08-1.63,3.65-1.64,2.42,0,3.26.67,5.05,3a6.89,6.89,0,0,0,4,2.44c1.74.55,3.17,1.86,4.79,2.81.89.52,1.86.55,2.74,1.08.53.32,1,.9,1.54,1.17,1.94.95,3.76,2,5.71,2.93,1.74.83,3.45,1.74,5.2,2.57.72.35,1.36,1.07,2.06,1.4.93.43,1.94.27,2.88.69,1.5.67,2.8,2,4.3,2.72a28.81,28.81,0,0,1,4.86,2.46c1.92,1.4,4.17,1.21,4.13,5,0,3,0,4.7,1.71,6.47s2.79,3,4.68,3.59c2.26.7,4.7,4.16,6.45,6.32,1.1,1.36,1.58,2.69,2.89,3.85a25.73,25.73,0,0,0,4,2.87,21.46,21.46,0,0,0,4.47,1.83c.57.2,1.14.39,1.7.62,2.1.85,4.6-.55,6.62.53,1.4.74,2.5,2.64,3.7,3.95a12.78,12.78,0,0,0,2.94,2.29c1.35.86,2.93.82,4.09,2a13.23,13.23,0,0,0,1.22,1.38c.24.18.65.09.87.32.8.8,1.31,2.13,2.21,2.92.38.33.94.46,1.26.89s.43,1.15.76,1.68a9.52,9.52,0,0,0,2.27,2.57c1.05.66,2.25.81,3.33,1.48,1.75,1.08,3,2.85,4.48,4.45,1.76,1.85,3.23,3.28,5.44,3.42,1.91.12,3.33,0,5.15,1.1a17.87,17.87,0,0,0,5.15,2.1c1.08.29,2.08.87,3.23.62a3,3,0,0,0,.74-.27,23.85,23.85,0,0,0,2.43-1.57,25,25,0,0,1,3.7-2.39,13.81,13.81,0,0,0,3.74-2.87c1.2-1.12,2.53-1.51,3.75-2.52a11.06,11.06,0,0,0,2.66-3.75c.67-1.35,1.5-2.49,2.18-3.82.3-.61.41-1.29.74-1.9.46-.87,1.18-1.41,1.66-2.29.79-1.43,1.14-3.23,2.05-4.49l.58-.78.52-.69a12.56,12.56,0,0,0,1.1-1.74c.07-.13.14-.28.21-.42s.25-.58.36-.9c.06-.17.12-.34.17-.52a32.84,32.84,0,0,1,5.58-10.23c.87-1.1,1.36-2.61,2.19-3.72a33,33,0,0,1,2.59-2.45,36.18,36.18,0,0,1,4.44-4.18,8.39,8.39,0,0,0,3-4.67c.64-2.29.73-5,1.69-7,.74-1.61,1.49-3,2.21-4.69a36.09,36.09,0,0,1,2-4.13c.33-.52.74-.56,1.08-1.13a18,18,0,0,0,.79-2.65c.58-1.78,1-3.38,1.66-5,1.35-3.13,1.86-6.6,3.31-9.62a41.75,41.75,0,0,1,2.49-4.19c.86-1.41,1.49-3,2.6-4a3.21,3.21,0,0,1,.41-.34,4.16,4.16,0,0,1,.45-.32l.28-.16a3.41,3.41,0,0,1,.48-.22c2.65-1,5.27,1.07,7.81,2.77a106.47,106.47,0,0,1,9.79,7.65c3.71,3.18,7.69,5.53,10.53,10.64,1.37,2.45,2.52,5.81,4.22,7.71,2.21,2.47,5,2.66,7.56,3.19,5.06,1,10.56,1,15.28,4.35.47.33.93.67,1.37,1,2.05,1.6,3.89,3.45,5.9,5.3,2.23,2,4.19,4.54,6.43,6.5a51.22,51.22,0,0,0,7.8,6.12c1,.57,2,1.17,3,1.71,1.22.66,3.16.89,4.16,2.25a17.2,17.2,0,0,0,4.47,4.22c2,1.36,3.82.73,5.92,1.18,1.82.39,3.1,2,4.76,2.88,1.16.59,2.75.08,4,.11,4,.08,7.34-4.53,11.46-2.47a57.33,57.33,0,0,1,5.54,3.4A26.07,26.07,0,0,0,750,245Z" transform="translate(0 0)"/><path class="cls-7" d="M150.51,396.15c4.3,27,30.61,45.54,57.17,51.86s54.34,3.56,81.58,5.4c28.18,1.91,58.57,8.33,83.14-5.59,15.84-9,26.22-24.94,36-40.31C417,394,353.22,373,356.13,357.33c2.18-11.77,34.2-16.14,43-18.29,12.67-3.11,71.81-11.05,71.65-27,0-3-1.69-5.72-3.29-8.27l-26.71-42.56c-3.8-6.06-7.71-12.43-8.33-19.56s3.23-15.19,10.19-16.85c5.82-1.38,15.15-.65,14.65-6.6-.15-1.8-1.44-3.26-2.67-4.58l-21.75-23.33a2,2,0,0,1-.36-.1c-.6-.25-1.08.34-1.48.93-.29.43-.45,1-.79,1.31s-.49-.12-.7,0a6.46,6.46,0,0,1-1.25.78,3.59,3.59,0,0,0-2.43,1.91c-.7,1.06-1.57,1.71-2.24,2.82-.84,1.39-1.72,3.11-2.48,4.64-1.23,2.46-2.58,5.5-4.41,7s-3.13,3.56-4.95,4.87c-1.54,1.11-3.12,1.88-4.62,3.18s-2.8,3.71-4.23,5.34a68,68,0,0,1-5,4.95,53,53,0,0,0-4.46,5,14.49,14.49,0,0,0-2.44,5.94,57.18,57.18,0,0,1-3.91,10.79c-.86,1.91-1.11,1.87-2.39,2.46-.61.29-.78.6-1.59.6a3.74,3.74,0,0,0-1.48.17c-1.13.44-2,1.3-3.21,1.36a10.37,10.37,0,0,1-3.47,0c-.81-.27-1.59-.78-2.45-1.16-1.93-.86-3.88-3-6.05-1.77-.51.29-.94,1.1-1.56,1.38a9.21,9.21,0,0,0-2,.92c-1.7,1.25-2.45,3.69-3.75,5.63-2.4,3.6-3.64,8.34-7,10.08-.83.43-1.14.32-1.84,1.26a13.31,13.31,0,0,1-1.7,2.1c-1.22,1.15-2.36,2.44-3.58,3.59s-2.24,2.79-3.45,4a26,26,0,0,0-3.35,4.42c-2.4,3.85-5.34,5.77-8.17,8.7a64.07,64.07,0,0,0-5.62,6.69c-1.63,2.23-3.11,4.91-4.95,6.75-1.43,1.43-3,2.48-4.48,3.88a168.65,168.65,0,0,0-11.81,13.45c-2.82,3.42-6,7-9.46,8.57-2.32,1.05-3.8,2.79-5.87,4.56-1.83,1.55-3.73,2.93-5.57,4.46-2.17,1.81-4.39,4.1-6.7,5.5a6.78,6.78,0,0,1-5.87.38c-1.9-.73-3.31-2.73-5.12-3.69-2.22-1.16-4.58,0-6.81.8a31.65,31.65,0,0,0-5,2.29c-1.67,1-3.47,3.09-5.21,3.3a26.93,26.93,0,0,0-4.33.77c-1.65.46-2.51,2.23-3.9,3.37a8.33,8.33,0,0,1-6.17,1.9L150,390.91C150.06,392.65,150.24,394.4,150.51,396.15Z" transform="translate(0 0)"/><path class="cls-8" d="M502.79,357.21a5.22,5.22,0,0,0-.74,4.49c2.75-.72,3.51-3.37,5.66-4.79a47.81,47.81,0,0,1,6.67-3.14c2.62-1.11,3.45-.9,5.63-3.45,5.13-6,5.11-15,14.4-16.92,1.73-.35,3.56-.34,5.18-1,8.89-3.84,11.33-13.11,17.17-19.73,7.85-8.89,18.38-14.67,27.83-21.64,18.74-13.8,34.65-44.68,59.26-47.1,15.26-1.5,31.35,1.91,45.59-3.8q-19-7-38-14.06c-14.59-5.42-18.09-7.17-20.66-22.55-1.42-8.48-2.59-20.28-4.47-29.08a5.09,5.09,0,0,0-1.62,1c-1.11,1-1.74,2.57-2.6,4a41.75,41.75,0,0,0-2.49,4.19c-1.45,3-2,6.49-3.31,9.62-.7,1.65-1.08,3.25-1.66,5a18,18,0,0,1-.79,2.65c-.34.57-.75.61-1.08,1.13a36.09,36.09,0,0,0-2,4.13c-.72,1.65-1.47,3.08-2.21,4.69-1,2.08-1,4.75-1.69,7a8.39,8.39,0,0,1-3,4.67,36.18,36.18,0,0,0-4.44,4.18,33,33,0,0,0-2.59,2.45c-.83,1.11-1.32,2.62-2.19,3.72A32.84,32.84,0,0,0,589,243.15a15.08,15.08,0,0,1-2.94,5c-.91,1.26-1.26,3.06-2.05,4.49-.48.88-1.2,1.42-1.66,2.29-.33.61-.44,1.29-.74,1.9-.68,1.33-1.51,2.47-2.18,3.82a11.06,11.06,0,0,1-2.66,3.75c-1.22,1-2.55,1.4-3.75,2.52a13.81,13.81,0,0,1-3.74,2.87,25,25,0,0,0-3.7,2.39,23.85,23.85,0,0,1-2.43,1.57c-3.91,5.94-7.93,11.82-12.08,17.59-1.23,1.72-2.39,3.5-3.56,5.26-7.43,11.13-14.81,22.28-22.46,33.25-4,5.68-8,11.34-12.2,16.82a28,28,0,0,1-6,5.93A16.43,16.43,0,0,0,502.79,357.21Z" transform="translate(0 0)"/><path class="cls-9" d="M417.8,500H0V140.53a2.74,2.74,0,0,0,.78.49c1.76.61,4,.1,5.82,0a10.23,10.23,0,0,0,2.28-.59,7.14,7.14,0,0,1,2.66-.54h.17a4,4,0,0,1,.5.11,2.72,2.72,0,0,1,.58.26,3.44,3.44,0,0,1,.82.7c1.11,1.27,2.51,2.17,3.48,3.83a70.25,70.25,0,0,1,3.43,7.93c1,2.34,1.56,4.07,2.94,5.53A38.65,38.65,0,0,1,28,165.17c2.42,4.21,4.6,11.56,7.77,13.48,1.39.84,2.57.43,4,.68,1.91.31,3.89.73,5.79,1.19a85.15,85.15,0,0,1,8.58,2.93c2.24.82,4.75,1.54,6.75,3.6,3.78,3.9,8.75,4.92,12,10.78,1.63,3,3.51,4.88,5.31,7.5a73.49,73.49,0,0,1,4.53,7.87c2.32,4.48,3.41,9.76,5.19,15,3.94,11.52,22.64,16.77,34.15,20.44,7.35,2.33,10.92,3.19,15.19,9.89,8.69,13.62,16.08,27.38,28,39.26l.85.82c.29.27.57.54.86.79s.59.53.89.77.59.51.89.75c1.67,1.4,3.4,2.7,5.11,4l1.66,1.26.68.53,1.14.91,0,0c.45.37.9.74,1.34,1.12s.89.77,1.33,1.17l1.59,1.5q2.37,2.27,4.56,4.56c.49.51,1,1,1.46,1.54l.6.64,1.48,1.61c.69.75,1.37,1.51,2,2.26l4,4.48c1,1.09,2,2.19,3,3.27.74.81,1.5,1.63,2.26,2.43.6.64,1.21,1.27,1.82,1.89l.1.1,1.41,1.42,1.17,1.13c1,.94,2,1.86,3,2.74.27.25.55.49.84.73s.46.4.69.59l1.08.9q1.31,1.06,2.67,2.07c.4.3.81.6,1.23.89l.09.07.47.33c.2.14.4.28.61.41,1.46,1,3,1.93,4.55,2.82l.88.48a3.13,3.13,0,0,0,.36.19c.39.22.79.43,1.19.63l1.25.62q2.08,1,4.2,2.08c2.11,1.07,4.24,2.19,6.37,3.37.71.38,1.42.78,2.13,1.18.43.25.87.49,1.3.75q1,.56,2,1.14c.77.44,1.53.89,2.3,1.35l2.23,1.35,2.24,1.37,2.22,1.4c3.71,2.34,7.39,4.8,11,7.31l.46.33q1.86,1.31,3.69,2.62a287.43,287.43,0,0,1,24.57,19.79c.86.78,1.71,1.55,2.57,2.31,1.24,1.12,2.48,2.21,3.72,3.3,1,.92,2.07,1.83,3.1,2.72l3.19,2.76,3.86,3.34,2.34,2h0c2.11,1.83,4.22,3.65,6.31,5.48l1.56,1.37c3.47,3,6.92,6.15,10.33,9.35l1.58,1.48c.53.5,1.06,1,1.58,1.51.79.75,1.58,1.52,2.36,2.29s1.57,1.54,2.35,2.32q2.34,2.36,4.65,4.8,2.1,2.22,4.25,4.33c.44.43.87.85,1.32,1.27l.95.89c.48.47,1,.93,1.48,1.39l1,.93.05,0h0c2.37,2.15,4.79,4.21,7.24,6.21.88.72,1.76,1.43,2.65,2.13C377.13,471.92,398.46,483.58,417.8,500Z" transform="translate(0 0)"/><path class="cls-10" d="M338.63,439.29c-15.82-16.77-32.76-29.86-49.51-45.05-18-16.34-42.4-33.35-64.69-44-19.48-9.35-28.76-26-44.35-40.3-4.59-4.22-10.14-7.52-14.79-12.15-11.91-11.88-19.3-25.64-28-39.26-4.27-6.7-7.84-7.56-15.19-9.9C110.6,244.93,91.9,239.68,88,228.16c-1.78-5.2-2.87-10.48-5.19-15a73.49,73.49,0,0,0-4.53-7.87c-1.8-2.62-3.68-4.51-5.31-7.5C69.72,192,64.75,191,61,187.06c-2-2.07-4.51-2.79-6.75-3.61a85.15,85.15,0,0,0-8.58-2.93c-1.9-.46-3.88-.88-5.79-1.2-1.47-.24-2.65.17-4-.67-3.17-1.92-5.35-9.27-7.77-13.49a39.66,39.66,0,0,0-4.58-6.93c-1.38-1.46-2-3.19-2.94-5.53a71.23,71.23,0,0,0-3.43-7.94c-1-1.65-2.37-2.55-3.48-3.82-1.41-1.62-3.09-1.1-4.73-.54,8.06,11.15,16.85,21.57,9.86,35.44-8.57,17,2.67,23.42,17,34.67,15.13,11.85,31.9,21.11,47.87,31.8A19.46,19.46,0,0,1,89,247.53a50.12,50.12,0,0,0,14.57,14.06c3,1.83,6.62,2.86,9.55,4.72,4.67,2.95,6.16,8.45,8.51,12.89,1,1.92,2.34,3.39,2.84,5.53.35,1.49.11,2.48,1,4,2.06,3.6,6.45,6.16,10.2,7.9,4,1.83,7.21,3,10.13,6.19,2.49,2.73,2.15,4.79,2.39,8.22.59,8.5,9.33,15.9,13.92,22.75,6,8.91,9.24,18.83,16.68,27,17.17,18.82,39.14,30.16,60.52,44,25.71,16.68,52.22,30.47,82,39.68,6.82,2.11,22.69,9.1,33.64,9.86A170.15,170.15,0,0,1,338.63,439.29Z" transform="translate(0 0)"/><path class="cls-9" d="M750,266.5V500H243.75c2.64-3.15,5.32-6.2,8.11-9.07,1.55-1.61,3.14-3.17,4.77-4.65,13.05-11.89,28-20.42,41-32.21,2.05-1.85,4.05-3.79,6-5.84,3-3.14,5.82-6.71,8.71-10.33,2.7-3.4,5.44-6.84,8.31-10a72.17,72.17,0,0,1,5.52-5.54c.64-.56,1.28-1.11,1.94-1.63a70,70,0,0,1,14.34-8.77c15.9-7.38,32.9-9.24,48.66-17.58l5.88-3.1c15.61-8.19,31.31-16.18,46.83-24.57,13.28-7.18,28.38-21.38,43.64-17.12,18,5,36.1-2.73,53.68-7,8.74-2.14,17.67-4.36,25.22-9.48,4.28-2.9,8-6.66,12.42-9.35,5-3.07,10.79-4.6,16.3-6.6,17.7-6.41,30.72-21.93,48.08-26.26a37.75,37.75,0,0,1,15.77-.57,26,26,0,0,0,4.36.57,8.32,8.32,0,0,0,1.12-.07c4.16-.55,7.23-4.34,11.1-6,5.43-2.36,11.67-.33,17.45-1.38,7.37-1.33,13-7.35,18.86-12.32a13.89,13.89,0,0,1,4.74-3c9.22-2.79,17.29,4.81,27.56.3A49.42,49.42,0,0,1,750,266.5Z" transform="translate(0 0)"/><path class="cls-11" d="M274.15,409.3c-.66-1.62-6.58-3.52-7.35-5a5.51,5.51,0,0,0-.74-1,6.42,6.42,0,0,1-.79-1.1,4.7,4.7,0,0,0-3-3.57,15.12,15.12,0,0,0-2.07-1.48,102.13,102.13,0,0,0-11.54-5.2c-1.36-.55-2.71-1.2-4-1.78-1.17-.49-1.71-1.4-2.72-2.36-1.76-1.67-3.28-3.71-5.15-5.15-1-.77-2-1.37-3-2-.82-.52-1.7-1.34-2.49-1.82s-1.29-.6-2-1c-1.16-.77-2.21-.48-3.38-.88a26.84,26.84,0,0,1-2.57-1.29,17.73,17.73,0,0,0-2.22-.68,11.47,11.47,0,0,1-3.58-2.33c-.36-.39-.69-.8-1-1.23-.54-.69-1.06-1.41-1.67-2.05a34.15,34.15,0,0,0-3.82-2.85,27.89,27.89,0,0,0-4.7-3c-4-2-8-4-11.59-7.27a32.52,32.52,0,0,1-4.07-4.13c-.82-1.06-1.49-2.36-2.32-3.4-3.06-3.83-6.06-7.27-9.77-9.71-2.66-1.75-5.59-3.34-8.35-4.81-3.36-1.8-6.66-3.59-10.06-5.21-.32-.15-.64-.3-1-.47h0c-2.76-1.36-5.58-2.94-8.24-4.56-3.05-1.85-5.78-4.67-8.6-7.18a67.84,67.84,0,0,0-6.88-5.75c-2.59-1.74-5.33-2.86-7.94-4.47-2.15-1.33-4.22-3-6.41-4.18-1.48-.8-3.08-1-4.56-1.82a13.5,13.5,0,0,1-4.08-3.86c-.65-.9-.94-2-1.56-2.95-.4-.58-1-.85-1.41-1.39a14.82,14.82,0,0,0-1.55-2.16,14.71,14.71,0,0,1-1.54-1.44c-1-1.23-1.5-3-2.38-4.32-1.29-2-3.54-3.43-5.09-5a40,40,0,0,1-3.73-4.3c-1-1.32-1.63-3.08-2.54-4.51-1.31-2.05-2.68-2.65-4.43-3.8a50.19,50.19,0,0,0-5.5-2.64c-1-.49-1.62-1.5-2.55-2.05a12.39,12.39,0,0,1-1.91-.84,18.74,18.74,0,0,0-1.92-1.86c-.46-.29-1-.39-1.49-.65a10.39,10.39,0,0,1-3-2.48c-2.6-3.29-5.63-5.55-8.42-8.51a17.49,17.49,0,0,0-4.19-3,9,9,0,0,1-3.46-3.43,6.57,6.57,0,0,0-2.39-3,22,22,0,0,0-6.5-3.28c-1.38-.45-3.42-1.12-4.58-2.49-.68-.81-.69-2.11-1.41-2.9-2-2.19-5.14-1.25-7.43-1.25a22.21,22.21,0,0,1-3.46,0c-1.24-.19-1.9-1.25-3-2A68.29,68.29,0,0,0,16.74,221c-1.49-.66-2.91-1.56-4.42-2.16s-2.66-.49-4-1.79c-1-.94-2-2.24-2.95-3.1s-1.27-.06-2.44.07a15,15,0,0,0-2.95.69V413.63H276.64C275.87,412.1,274.83,411,274.15,409.3ZM748.71,279.21a48.67,48.67,0,0,0-9.37,4.54c-2.63,1.6-4.7,4.51-7.22,6.39-2.2,1.65-4.65,2.67-6.93,4.13s-4.81,4-7.42,4.05c-1.13,0-2.26,0-3.4,0-1.67,0-3.68,1.47-5,2.94-1.54,1.66-2.58,3.26-4.47,4.1-2.25,1-3.88,3.18-5.94,4.81a16.59,16.59,0,0,0-2.81,3.71,11.25,11.25,0,0,1-2.19,2.38,28.33,28.33,0,0,1-3.51,2.82,12.21,12.21,0,0,1-2.27.69c-.89.33-1.57,1.17-2.49,1.45a18.89,18.89,0,0,0-4.7,2.33c-1.47.9-3.17,1.12-4.7,1.78a90.08,90.08,0,0,0-9.22,5.2,43.67,43.67,0,0,1-5.66,3,11.81,11.81,0,0,1-4.5.39c-3.83,0-7.55-1.28-11.38-.39-4.18,1-8,3.51-11.9,5.57-3.64,1.88-6.81,5.59-10.27,8.05-3.91,2.78-8.7,1.31-12.92,2.17a16.82,16.82,0,0,1-3.75.13c-2.07,0-3.28.69-5,2.32a61.09,61.09,0,0,1-8.43,7.12c-1.16.77-2.32,1.59-3.46,2.43a23.54,23.54,0,0,1-6.59,3.73c-3.87,1.29-7.63,3.13-11.48,4.56a39.43,39.43,0,0,1-5.72,1.71c-4.87,1-9.81.18-14.72,1.28-6.16,1.38-11.35,5.61-17.13,8.7-4.26,2.29-8.86,1.54-13.34,1.54-3.36,0-6.79-.33-10.12.38-6.51,1.41-11.87,6.85-18.26,8.93-5,1.61-8.94,6.61-13.64,9.21-2.44,1.35-4.44,3.49-6.78,5-2,1.31-4.07,2.3-6.09,3.48a52.08,52.08,0,0,1-4.58,2.88c-1.36.6-2.78.44-4.18.87-4.65,1.39-9.34,3.74-13.87,5.81-3.88,1.75-7.76,3-11.65,4.51-1.26.5-2.52,1-3.77,1.35a24.94,24.94,0,0,1-7.73,1.27c-2.64,0-5.28,0-7.92,0a47.79,47.79,0,0,0-14.57,2.6c-3.18,1-6.4,2.14-9.66,2.06a11.74,11.74,0,0,1-2.73-.38c-6.32-1.66-13.15.38-19.05,3.88-2,1.17-3.85,3.23-6,3.64-2.52.49-5-.58-7.48.79a22.35,22.35,0,0,1-5,2.23h0a3.37,3.37,0,0,1-.34.09,14,14,0,0,0-2.72.73c-1.36.65-2.54,2-3.92,2.73a1.3,1.3,0,0,1-.31.16L324,453.46h0l-72.13,36.88L233,500H750V278.74C749.57,278.91,749.14,279.06,748.71,279.21Z" transform="translate(0 0)"/><path class="cls-12" d="M180.36,403a13.39,13.39,0,0,1-3.1.08c-5.95-.12-11.91,0-17.85.08q-4.38.06-8.73,0c-4.66-.09-9.3-.33-13.92-.69h0a192.19,192.19,0,0,1-47.23-9.62c-15.38-5.27-30.21-13.83-46.59-16-11.11-1.46-22.27-2.74-33-6.1-3.26-1-6.63-1.82-10-2.69V272.78a97.55,97.55,0,0,0,8.62,6.05c2.07,1.23,4.5,2,6.69,3a18.55,18.55,0,0,1,5.9,3.8c1.34,1.33,2.81,2.06,3.85,3.68,2,3.21,3.76,5.13,7.44,6.55,2,.75,3.48,2.06,5.23,3.13,1.49.91,3.27,1.37,4.72,2.32a40.58,40.58,0,0,1,8.8,8.6c5,6.5,8.77,15.54,17.1,18.67,3.52,1.32,6.93,3.48,10.34,5.09,2.67,1.28,5.67,3.05,8.61,3.22,4.28.26,8,2.47,12,3.82,3.53,1.17,6.07,4,8.89,6.29,2.47,1.95,3.53,5.7,6.12,7.22,1.46.84,2.9.83,4.27,2s2.38,3.1,4,4c1.15.62,2.8.7,4,1.11a23.55,23.55,0,0,0,5,1.48c1.63.15,2.9-.07,4.48.66,2,.92,3.47,2.63,5.29,3.8,4,2.53,7.31,5.77,11.48,8,2.13,1.16,3.27,3.13,5.1,4.8a38.7,38.7,0,0,1,5,6.18,23.76,23.76,0,0,0,3.89,4.45,11.6,11.6,0,0,0,.95.75c2.52,1.81,5.18,3.15,7.37,5.36C176.68,398.32,180,400.88,180.36,403Z" transform="translate(0 0)"/><path class="cls-13" d="M750,362.62V500H498c-.27-.47-.53-.94-.78-1.42-3.07-5.82-4.94-12.43-6.72-18.71-2.8-9.9-5.42-19.86-7-22a78.44,78.44,0,0,1,23.06,1.82c4.55,1.13,9.18,1.23,13.85,1.67a116.45,116.45,0,0,0,26.65-.25c3.76-.49,7.45-.55,11.17-1.15l.75-.12c2.65-.47,5.4-.37,8.08-.79s4.87-1.57,7.4-2.62c7-2.91,13.92-6.51,21.29-8.61a60.17,60.17,0,0,0,6.17-1.89c3.1-1.22,6-2.81,9.24-3.67,4.94-1.33,10.38-.52,15.48-.61a35.3,35.3,0,0,0,6.76-1c2.22-.51,4.35-1.8,6.54-2.47,1.79-.55,3.82-.75,5.52-1.6s3.1-2.31,5.12-2.92c1.84-.54,3.83-.57,5.64-1.16,3.26-1.06,5.15-4.19,7.89-6.07,3.43-2.35,5.41-5.39,7.77-8.83a97,97,0,0,0,7-11.09c2.18-4.35,7.06-10.52,12.07-11.86,1.69-.46,3.16-.13,4.91-.78s3.29-1.86,5.32-2a22.31,22.31,0,0,0,3.26.09c1.36-.3,1.62-.88,2.76-1.59,1.33-.85,2.95-1.26,4.29-2.1,1.79-1.11,2.91-2.21,5.18-2.42s2.67.62,3.58,2.53a14.42,14.42,0,0,1,1.57,4.63c.21,1.58-.22,2.39.75,3.88,1.17,1.78,3.5,2.72,5,4.24,1,1.06,2.72,2.81,4.54,2,1.58-.73.55-2.78.75-4.3.5-3.78,2-6.9,2.81-10.34a52.34,52.34,0,0,1,1.72-5.08c1.19-3.37,1.8-7.61,4.09-10.46,1.45-1.8,3.2-3.1,4.5-5C747.08,366.3,748.31,363.91,750,362.62Z" transform="translate(0 0)"/><path class="cls-14" d="M698.15,498.47c-5-1.37-10-2.69-15-4.1-3.53-1-6.14-3.47-9.61-4.59a29.09,29.09,0,0,0-6.41-1,13.91,13.91,0,0,1-5.65-1.49C659.1,486,657.2,484,655,482.45a37.78,37.78,0,0,0-21.48-6.67c-7.65,0-15.3-.06-22.95,0a39.78,39.78,0,0,1-15-2.47A62.23,62.23,0,0,0,582.06,470c-3.06-.3-6.18.7-9.21-.17a56.74,56.74,0,0,1-6.07-2.59c-5-2.22-10.16-4.09-15.43-6.1-7.38-2.8-15.35-2.82-22.61-5.93-6.84-2.93-14-2.19-21.37-2.19-4.56,0-10.16.89-14.62-.12-3.69-.83-7.32-2-11.17-2.54-2.88-.44-4.86-.42-7.67-1.5s-5.7-2-8.6-2.84c-4.57-1.39-8.41-1.38-13.15-1.39-3.25,0-7.24.63-10.43.08-4.06-.71-8.63-2.51-12.55-3.89-8.6-3-17.26-7.46-26.4-8.63-4.34-.55-8.68-1.48-13-1.5s-8.21-1.47-12.62-1.43c-4.89,0-10.13.48-15-.12-5.75-.72-12.08-.72-17.67-2.1-5.87-1.44-11.29-2.61-17.41-2.05-4.36.4-7.88,2.08-12.38,1.19a152.11,152.11,0,0,1-15.46-3.79c-5.18-1.62-8.82-5.61-13.29-8.5-10.16-6.58-23.46-5.95-35.05-8.51-5.73-1.27-11.29-3.8-17-5.17-6.16-1.47-12.33-2.66-18.36-4.85-7.34-2.66-15.17-4.95-22-8.81-5.61-3.18-12.26-2-18.6-2-7.2,0-15.17,1-22.29.07-5.06-.65-10.15-1.75-15.25-2.56-4-.64-7.87,0-11.78-1.13-2.86-.84-5.39-1.52-8.3-2.1-7.78-1.54-14.81-6-22.33-8.26-8.85-2.63-17.06-7-26.18-8.77-6.68-1.32-13-3.7-19.56-5.59-4.86-1.41-9.55-4.05-14.38-5.05-4.64-1-8.65-3.19-13.21-4.23A153,153,0,0,1,0,340.34V500H702.71C701.1,499.42,699.54,498.86,698.15,498.47Z" transform="translate(0 0)"/><circle class="cls-15" cx="375" cy="170.22" r="167.86" transform="translate(-10.53 315.02) rotate(-45)"/></g></g></svg>