<svg xmlns="http://www.w3.org/2000/svg" xmlns:xlink="http://www.w3.org/1999/xlink" viewBox="0 0 750 497.63"><defs><style>.cls-1{isolation:isolate;}.cls-2{fill:url(#linear-gradient);}.cls-3{fill:url(#linear-gradient-2);}.cls-4{fill:url(#linear-gradient-3);}.cls-5{mix-blend-mode:overlay;fill:url(#radial-gradient);}</style><linearGradient id="linear-gradient" x1="350.91" y1="240.02" x2="365.86" y2="322.2" gradientUnits="userSpaceOnUse"><stop offset="0" stop-color="#129483"/><stop offset="1" stop-color="#3eaf98"/></linearGradient><linearGradient id="linear-gradient-2" x1="327.96" y1="405.58" x2="298.6" y2="285.79" gradientUnits="userSpaceOnUse"><stop offset="0" stop-color="#bed5b3"/><stop offset="1" stop-color="#3eaf98" stop-opacity="0.3"/></linearGradient><linearGradient id="linear-gradient-3" x1="615.85" y1="383" x2="577.57" y2="226.83" xlink:href="#linear-gradient-2"/><radialGradient id="radial-gradient" cx="375" cy="170.22" r="167.86" gradientTransform="translate(230.2 -215.31) rotate(45)" gradientUnits="userSpaceOnUse"><stop offset="0.15" stop-color="#fffaf2"/><stop offset="0.24" stop-color="#fffaf2" stop-opacity="0.82"/><stop offset="0.35" stop-color="#fffaf2" stop-opacity="0.61"/><stop offset="0.46" stop-color="#fffaf2" stop-opacity="0.42"/><stop offset="0.58" stop-color="#fffaf2" stop-opacity="0.27"/><stop offset="0.69" stop-color="#fffaf2" stop-opacity="0.15"/><stop offset="0.8" stop-color="#fffaf2" stop-opacity="0.07"/><stop offset="0.9" stop-color="#fffaf2" stop-opacity="0.02"/><stop offset="1" stop-color="#fffaf2" stop-opacity="0"/></radialGradient></defs><g class="cls-1"><g id="BACKGROUND"><path class="cls-2" d="M750,245V500H0V453.06l108.1-44.8,28.65-11.87h0l13.2-5.48,16.9-7,7-2.91h0l24.61-10.21h0l18-7.47,8.66-3.59,8-3.33a8.33,8.33,0,0,0,6.17-1.9c.87-.71,1.53-1.67,2.31-2.4l.24-.21h0a1.74,1.74,0,0,1,.27-.22,2.6,2.6,0,0,1,.45-.28h0a3.13,3.13,0,0,1,.6-.24,26.93,26.93,0,0,1,4.33-.77c1.74-.21,3.54-2.33,5.21-3.3a31.65,31.65,0,0,1,5-2.29c2.23-.82,4.59-2,6.81-.8,1.81,1,3.22,3,5.12,3.69a6.78,6.78,0,0,0,5.87-.38c2.31-1.4,4.53-3.69,6.7-5.5,1.84-1.53,3.74-2.91,5.57-4.46,2.07-1.77,3.55-3.51,5.87-4.56,3.47-1.58,6.64-5.15,9.46-8.57a168.65,168.65,0,0,1,11.81-13.45c1.45-1.4,3.05-2.45,4.48-3.88,1.84-1.84,3.32-4.52,4.95-6.75a64.07,64.07,0,0,1,5.62-6.69c2.83-2.93,5.77-4.85,8.17-8.7a26,26,0,0,1,3.35-4.42c1.21-1.24,2.23-2.86,3.45-4s2.36-2.44,3.58-3.59a13.31,13.31,0,0,0,1.7-2.1c.7-.94,1-.83,1.84-1.26,3.35-1.74,4.59-6.48,7-10.08a.75.75,0,0,0,.07-.12,15,15,0,0,0,.87-1.5c.33-.62.65-1.24,1-1.82,0,0,0,0,0-.06a7.39,7.39,0,0,1,.42-.66,6,6,0,0,1,1.36-1.47,9.21,9.21,0,0,1,2-.92c.62-.28,1.05-1.09,1.56-1.38,2.17-1.21,4.12.91,6.05,1.77.86.38,1.64.89,2.45,1.16a10.37,10.37,0,0,0,3.47,0c1.2-.06,2.08-.92,3.21-1.36a3.74,3.74,0,0,1,1.48-.17c.81,0,1-.31,1.59-.6,1.28-.59,1.53-.55,2.39-2.46a57.18,57.18,0,0,0,3.91-10.79,14.49,14.49,0,0,1,2.44-5.94,53,53,0,0,1,4.46-5,68,68,0,0,0,5-4.95c1.43-1.63,2.7-4,4.23-5.34s3.08-2.07,4.62-3.18c1.82-1.31,3.21-3.48,4.95-4.87s3.18-4.51,4.41-7c.76-1.53,1.64-3.25,2.48-4.64.67-1.11,1.54-1.76,2.24-2.82a3.59,3.59,0,0,1,2.43-1.91,6.46,6.46,0,0,0,1.25-.78c.21-.14.46.16.7,0s.5-.88.79-1.31c.4-.59.88-1.18,1.48-.93l.22.07.14,0c1.4.26,2.08-1.63,3.65-1.64,2.42,0,3.26.67,5.05,3a6.89,6.89,0,0,0,4,2.44c1.74.55,3.17,1.86,4.79,2.81.89.52,1.86.55,2.74,1.08.53.32,1,.9,1.54,1.17,1.94.95,3.76,2,5.71,2.93,1.74.83,3.45,1.74,5.2,2.57.72.35,1.36,1.07,2.06,1.4.93.43,1.94.27,2.88.69,1.5.67,2.8,2,4.3,2.72a28.81,28.81,0,0,1,4.86,2.46c1.92,1.4,4.17,1.21,4.13,5,0,3,0,4.7,1.71,6.47s2.79,3,4.68,3.59c2.26.7,4.7,4.16,6.45,6.32,1.1,1.36,1.58,2.69,2.89,3.85a25.73,25.73,0,0,0,4,2.87,21.46,21.46,0,0,0,4.47,1.83c.57.2,1.14.39,1.7.62,2.1.85,4.6-.55,6.62.53,1.4.74,2.5,2.64,3.7,3.95a12.78,12.78,0,0,0,2.94,2.29c1.35.86,2.93.82,4.09,2a13.23,13.23,0,0,0,1.22,1.38c.24.18.65.09.87.32.8.8,1.31,2.13,2.21,2.92.38.33.94.46,1.26.89s.43,1.15.76,1.68a9.52,9.52,0,0,0,2.27,2.57c1.05.66,2.25.81,3.33,1.48,1.75,1.08,3,2.85,4.48,4.45,1.76,1.85,3.23,3.28,5.44,3.42,1.91.12,3.33,0,5.15,1.1a17.87,17.87,0,0,0,5.15,2.1c1.08.29,2.08.87,3.23.62a3,3,0,0,0,.74-.27,23.85,23.85,0,0,0,2.43-1.57,25,25,0,0,1,3.7-2.39,13.81,13.81,0,0,0,3.74-2.87c1.2-1.12,2.53-1.51,3.75-2.52a11.06,11.06,0,0,0,2.66-3.75c.67-1.35,1.5-2.49,2.18-3.82.3-.61.41-1.29.74-1.9.46-.87,1.18-1.41,1.66-2.29.79-1.43,1.14-3.23,2.05-4.49l.58-.78.52-.69a12.56,12.56,0,0,0,1.1-1.74c.07-.13.14-.28.21-.42s.25-.58.36-.9c.06-.17.12-.34.17-.52a32.84,32.84,0,0,1,5.58-10.23c.87-1.1,1.36-2.61,2.19-3.72a33,33,0,0,1,2.59-2.45,36.18,36.18,0,0,1,4.44-4.18,8.39,8.39,0,0,0,3-4.67c.64-2.29.73-5,1.69-7,.74-1.61,1.49-3,2.21-4.69a36.09,36.09,0,0,1,2-4.13c.33-.52.74-.56,1.08-1.13a18,18,0,0,0,.79-2.65c.58-1.78,1-3.38,1.66-5,1.35-3.13,1.86-6.6,3.31-9.62a41.75,41.75,0,0,1,2.49-4.19c.86-1.41,1.49-3,2.6-4a3.21,3.21,0,0,1,.41-.34,4.16,4.16,0,0,1,.45-.32l.28-.16a3.41,3.41,0,0,1,.48-.22c2.65-1,5.27,1.07,7.81,2.77a106.47,106.47,0,0,1,9.79,7.65c3.71,3.18,7.69,5.53,10.53,10.64,1.37,2.45,2.52,5.81,4.22,7.71,2.21,2.47,5,2.66,7.56,3.19,5.06,1,10.56,1,15.28,4.35.47.33.93.67,1.37,1,2.05,1.6,3.89,3.45,5.9,5.3,2.23,2,4.19,4.54,6.43,6.5a51.22,51.22,0,0,0,7.8,6.12c1,.57,2,1.17,3,1.71,1.22.66,3.16.89,4.16,2.25a17.2,17.2,0,0,0,4.47,4.22c2,1.36,3.82.73,5.92,1.18,1.82.39,3.1,2,4.76,2.88,1.16.59,2.75.08,4,.11,4,.08,7.34-4.53,11.46-2.47a57.33,57.33,0,0,1,5.54,3.4A26.07,26.07,0,0,0,750,245Z" transform="translate(0 -2.37)"/><path class="cls-3" d="M150.51,396.15c4.3,27,30.61,45.54,57.17,51.86s54.34,3.56,81.58,5.4c28.18,1.91,58.57,8.33,83.14-5.59,15.84-9,26.22-24.94,36-40.31C417,394,353.22,373,356.13,357.33c2.18-11.77,34.2-16.14,43-18.29,12.67-3.11,71.81-11.05,71.65-27,0-3-1.69-5.72-3.29-8.27l-26.71-42.56c-3.8-6.06-7.71-12.43-8.33-19.56s3.23-15.19,10.19-16.85c5.82-1.38,15.15-.65,14.65-6.6-.15-1.8-1.44-3.26-2.67-4.58l-21.75-23.33a2,2,0,0,1-.36-.1c-.6-.25-1.08.34-1.48.93-.29.43-.45,1-.79,1.31s-.49-.12-.7,0a6.46,6.46,0,0,1-1.25.78,3.59,3.59,0,0,0-2.43,1.91c-.7,1.06-1.57,1.71-2.24,2.82-.84,1.39-1.72,3.11-2.48,4.64-1.23,2.46-2.58,5.5-4.41,7s-3.13,3.56-4.95,4.87c-1.54,1.11-3.12,1.88-4.62,3.18s-2.8,3.71-4.23,5.34a68,68,0,0,1-5,4.95,53,53,0,0,0-4.46,5,14.49,14.49,0,0,0-2.44,5.94,57.18,57.18,0,0,1-3.91,10.79c-.86,1.91-1.11,1.87-2.39,2.46-.61.29-.78.6-1.59.6a3.74,3.74,0,0,0-1.48.17c-1.13.44-2,1.3-3.21,1.36a10.37,10.37,0,0,1-3.47,0c-.81-.27-1.59-.78-2.45-1.16-1.93-.86-3.88-3-6.05-1.77-.51.29-.94,1.1-1.56,1.38a9.21,9.21,0,0,0-2,.92c-1.7,1.25-2.45,3.69-3.75,5.63-2.4,3.6-3.64,8.34-7,10.08-.83.43-1.14.32-1.84,1.26a13.31,13.31,0,0,1-1.7,2.1c-1.22,1.15-2.36,2.44-3.58,3.59s-2.24,2.79-3.45,4a26,26,0,0,0-3.35,4.42c-2.4,3.85-5.34,5.77-8.17,8.7a64.07,64.07,0,0,0-5.62,6.69c-1.63,2.23-3.11,4.91-4.95,6.75-1.43,1.43-3,2.48-4.48,3.88a168.65,168.65,0,0,0-11.81,13.45c-2.82,3.42-6,7-9.46,8.57-2.32,1.05-3.8,2.79-5.87,4.56-1.83,1.55-3.73,2.93-5.57,4.46-2.17,1.81-4.39,4.1-6.7,5.5a6.78,6.78,0,0,1-5.87.38c-1.9-.73-3.31-2.73-5.12-3.69-2.22-1.16-4.58,0-6.81.8a31.65,31.65,0,0,0-5,2.29c-1.67,1-3.47,3.09-5.21,3.3a26.93,26.93,0,0,0-4.33.77c-1.65.46-2.51,2.23-3.9,3.37a8.33,8.33,0,0,1-6.17,1.9L150,390.91C150.06,392.65,150.24,394.4,150.51,396.15Z" transform="translate(0 -2.37)"/><path class="cls-4" d="M502.79,357.21a5.22,5.22,0,0,0-.74,4.49c2.75-.72,3.51-3.37,5.66-4.79a47.81,47.81,0,0,1,6.67-3.14c2.62-1.11,3.45-.9,5.63-3.45,5.13-6,5.11-15,14.4-16.92,1.73-.35,3.56-.34,5.18-1,8.89-3.84,11.33-13.11,17.17-19.73,7.85-8.89,18.38-14.67,27.83-21.64,18.74-13.8,34.65-44.68,59.26-47.1,15.26-1.5,31.35,1.91,45.59-3.8q-19-7-38-14.06c-14.59-5.42-18.09-7.17-20.66-22.55-1.42-8.48-2.59-20.28-4.47-29.08a5.09,5.09,0,0,0-1.62,1c-1.11,1-1.74,2.57-2.6,4a41.75,41.75,0,0,0-2.49,4.19c-1.45,3-2,6.49-3.31,9.62-.7,1.65-1.08,3.25-1.66,5a18,18,0,0,1-.79,2.65c-.34.57-.75.61-1.08,1.13a36.09,36.09,0,0,0-2,4.13c-.72,1.65-1.47,3.08-2.21,4.69-1,2.08-1,4.75-1.69,7a8.39,8.39,0,0,1-3,4.67,36.18,36.18,0,0,0-4.44,4.18,33,33,0,0,0-2.59,2.45c-.83,1.11-1.32,2.62-2.19,3.72A32.84,32.84,0,0,0,589,243.15a15.08,15.08,0,0,1-2.94,5c-.91,1.26-1.26,3.06-2.05,4.49-.48.88-1.2,1.42-1.66,2.29-.33.61-.44,1.29-.74,1.9-.68,1.33-1.51,2.47-2.18,3.82a11.06,11.06,0,0,1-2.66,3.75c-1.22,1-2.55,1.4-3.75,2.52a13.81,13.81,0,0,1-3.74,2.87,25,25,0,0,0-3.7,2.39,23.85,23.85,0,0,1-2.43,1.57c-3.91,5.94-7.93,11.82-12.08,17.59-1.23,1.72-2.39,3.5-3.56,5.26-7.43,11.13-14.81,22.28-22.46,33.25-4,5.68-8,11.34-12.2,16.82a28,28,0,0,1-6,5.93A16.43,16.43,0,0,0,502.79,357.21Z" transform="translate(0 -2.37)"/><circle class="cls-5" cx="375" cy="170.22" r="167.86" transform="translate(-10.53 312.66) rotate(-45)"/></g></g></svg>