<svg xmlns="http://www.w3.org/2000/svg" xmlns:xlink="http://www.w3.org/1999/xlink" viewBox="0 0 750 497.63"><defs><style>.cls-1{isolation:isolate;}.cls-2{fill:#1a6357;}.cls-3{fill:url(#linear-gradient);}.cls-4{fill:url(#linear-gradient-2);}.cls-5{fill:url(#linear-gradient-3);}.cls-6{fill:url(#linear-gradient-4);}.cls-7{fill:#021e22;}.cls-8{mix-blend-mode:overlay;fill:url(#radial-gradient);}</style><linearGradient id="linear-gradient" x1="212.5" y1="246.2" x2="170.89" y2="315.83" gradientUnits="userSpaceOnUse"><stop offset="0" stop-color="#bed5b3"/><stop offset="1" stop-color="#3eaf98" stop-opacity="0"/></linearGradient><linearGradient id="linear-gradient-2" x1="384.75" y1="311.2" x2="346.83" y2="490.76" gradientUnits="userSpaceOnUse"><stop offset="0" stop-color="#093f35"/><stop offset="1" stop-color="#1a6357"/></linearGradient><linearGradient id="linear-gradient-3" x1="91.76" y1="329.03" x2="76.82" y2="413.16" gradientUnits="userSpaceOnUse"><stop offset="0" stop-color="#002a2e"/><stop offset="0.99" stop-color="#075649"/></linearGradient><linearGradient id="linear-gradient-4" x1="634.78" y1="412.66" x2="603.04" y2="529.3" xlink:href="#linear-gradient-3"/><radialGradient id="radial-gradient" cx="375" cy="170.22" r="167.86" gradientTransform="translate(230.2 -215.31) rotate(45)" gradientUnits="userSpaceOnUse"><stop offset="0.15" stop-color="#fffaf2"/><stop offset="0.24" stop-color="#fffaf2" stop-opacity="0.82"/><stop offset="0.35" stop-color="#fffaf2" stop-opacity="0.61"/><stop offset="0.46" stop-color="#fffaf2" stop-opacity="0.42"/><stop offset="0.58" stop-color="#fffaf2" stop-opacity="0.27"/><stop offset="0.69" stop-color="#fffaf2" stop-opacity="0.15"/><stop offset="0.8" stop-color="#fffaf2" stop-opacity="0.07"/><stop offset="0.9" stop-color="#fffaf2" stop-opacity="0.02"/><stop offset="1" stop-color="#fffaf2" stop-opacity="0"/></radialGradient></defs><g class="cls-1"><g id="BACKGROUND"><path class="cls-2" d="M417.8,500H0V140.53a2.74,2.74,0,0,0,.78.49c1.76.61,4,.1,5.82,0a10.23,10.23,0,0,0,2.28-.59,7.14,7.14,0,0,1,2.66-.54h.17a4,4,0,0,1,.5.11,2.72,2.72,0,0,1,.58.26,3.44,3.44,0,0,1,.82.7c1.11,1.27,2.51,2.17,3.48,3.83a70.25,70.25,0,0,1,3.43,7.93c1,2.34,1.56,4.07,2.94,5.53A38.65,38.65,0,0,1,28,165.17c2.42,4.21,4.6,11.56,7.77,13.48,1.39.84,2.57.43,4,.68,1.91.31,3.89.73,5.79,1.19a85.15,85.15,0,0,1,8.58,2.93c2.24.82,4.75,1.54,6.75,3.6,3.78,3.9,8.75,4.92,12,10.78,1.63,3,3.51,4.88,5.31,7.5a73.49,73.49,0,0,1,4.53,7.87c2.32,4.48,3.41,9.76,5.19,15,3.94,11.52,22.64,16.77,34.15,20.44,7.35,2.33,10.92,3.19,15.19,9.89,8.69,13.62,16.08,27.38,28,39.26l.85.82c.29.27.57.54.86.79s.59.53.89.77.59.51.89.75c1.67,1.4,3.4,2.7,5.11,4l1.66,1.26.68.53,1.14.91,0,0c.45.37.9.74,1.34,1.12s.89.77,1.33,1.17l1.59,1.5q2.37,2.27,4.56,4.56c.49.51,1,1,1.46,1.54l.6.64,1.48,1.61c.69.75,1.37,1.51,2,2.26l4,4.48c1,1.09,2,2.19,3,3.27.74.81,1.5,1.63,2.26,2.43.6.64,1.21,1.27,1.82,1.89l.1.1,1.41,1.42,1.17,1.13c1,.94,2,1.86,3,2.74.27.25.55.49.84.73s.46.4.69.59l1.08.9q1.31,1.06,2.67,2.07c.4.3.81.6,1.23.89l.09.07.47.33c.2.14.4.28.61.41,1.46,1,3,1.93,4.55,2.82l.88.48a3.13,3.13,0,0,0,.36.19c.39.22.79.43,1.19.63l1.25.62q2.08,1,4.2,2.08c2.11,1.07,4.24,2.19,6.37,3.37.71.38,1.42.78,2.13,1.18.43.25.87.49,1.3.75q1,.56,2,1.14c.77.44,1.53.89,2.3,1.35l2.23,1.35,2.24,1.37,2.22,1.4c3.71,2.34,7.39,4.8,11,7.31l.46.33q1.86,1.31,3.69,2.62a287.43,287.43,0,0,1,24.57,19.79c.86.78,1.71,1.55,2.57,2.31,1.24,1.12,2.48,2.21,3.72,3.3,1,.92,2.07,1.83,3.1,2.72l3.19,2.76,3.86,3.34,2.34,2h0c2.11,1.83,4.22,3.65,6.31,5.48l1.56,1.37c3.47,3,6.92,6.15,10.33,9.35l1.58,1.48c.53.5,1.06,1,1.58,1.51.79.75,1.58,1.52,2.36,2.29s1.57,1.54,2.35,2.32q2.34,2.36,4.65,4.8,2.1,2.22,4.25,4.33c.44.43.87.85,1.32,1.27l.95.89c.48.47,1,.93,1.48,1.39l1,.93.05,0h0c2.37,2.15,4.79,4.21,7.24,6.21.88.72,1.76,1.43,2.65,2.13C377.13,471.92,398.46,483.58,417.8,500Z" transform="translate(0 -2.37)"/><path class="cls-3" d="M338.63,439.29c-15.82-16.77-32.76-29.86-49.51-45.05-18-16.34-42.4-33.35-64.69-44-19.48-9.35-28.76-26-44.35-40.3-4.59-4.22-10.14-7.52-14.79-12.15-11.91-11.88-19.3-25.64-28-39.26-4.27-6.7-7.84-7.56-15.19-9.9C110.6,244.93,91.9,239.68,88,228.16c-1.78-5.2-2.87-10.48-5.19-15a73.49,73.49,0,0,0-4.53-7.87c-1.8-2.62-3.68-4.51-5.31-7.5C69.72,192,64.75,191,61,187.06c-2-2.07-4.51-2.79-6.75-3.61a85.15,85.15,0,0,0-8.58-2.93c-1.9-.46-3.88-.88-5.79-1.2-1.47-.24-2.65.17-4-.67-3.17-1.92-5.35-9.27-7.77-13.49a39.66,39.66,0,0,0-4.58-6.93c-1.38-1.46-2-3.19-2.94-5.53a71.23,71.23,0,0,0-3.43-7.94c-1-1.65-2.37-2.55-3.48-3.82-1.41-1.62-3.09-1.1-4.73-.54,8.06,11.15,16.85,21.57,9.86,35.44-8.57,17,2.67,23.42,17,34.67,15.13,11.85,31.9,21.11,47.87,31.8A19.46,19.46,0,0,1,89,247.53a50.12,50.12,0,0,0,14.57,14.06c3,1.83,6.62,2.86,9.55,4.72,4.67,2.95,6.16,8.45,8.51,12.89,1,1.92,2.34,3.39,2.84,5.53.35,1.49.11,2.48,1,4,2.06,3.6,6.45,6.16,10.2,7.9,4,1.83,7.21,3,10.13,6.19,2.49,2.73,2.15,4.79,2.39,8.22.59,8.5,9.33,15.9,13.92,22.75,6,8.91,9.24,18.83,16.68,27,17.17,18.82,39.14,30.16,60.52,44,25.71,16.68,52.22,30.47,82,39.68,6.82,2.11,22.69,9.1,33.64,9.86A170.15,170.15,0,0,1,338.63,439.29Z" transform="translate(0 -2.37)"/><path class="cls-2" d="M750,266.5V500H243.75c2.64-3.15,5.32-6.2,8.11-9.07,1.55-1.61,3.14-3.17,4.77-4.65,13.05-11.89,28-20.42,41-32.21,2.05-1.85,4.05-3.79,6-5.84,3-3.14,5.82-6.71,8.71-10.33,2.7-3.4,5.44-6.84,8.31-10a72.17,72.17,0,0,1,5.52-5.54c.64-.56,1.28-1.11,1.94-1.63a70,70,0,0,1,14.34-8.77c15.9-7.38,32.9-9.24,48.66-17.58l5.88-3.1c15.61-8.19,31.31-16.18,46.83-24.57,13.28-7.18,28.38-21.38,43.64-17.12,18,5,36.1-2.73,53.68-7,8.74-2.14,17.67-4.36,25.22-9.48,4.28-2.9,8-6.66,12.42-9.35,5-3.07,10.79-4.6,16.3-6.6,17.7-6.41,30.72-21.93,48.08-26.26a37.75,37.75,0,0,1,15.77-.57,26,26,0,0,0,4.36.57,8.32,8.32,0,0,0,1.12-.07c4.16-.55,7.23-4.34,11.1-6,5.43-2.36,11.67-.33,17.45-1.38,7.37-1.33,13-7.35,18.86-12.32a13.89,13.89,0,0,1,4.74-3c9.22-2.79,17.29,4.81,27.56.3A49.42,49.42,0,0,1,750,266.5Z" transform="translate(0 -2.37)"/><path class="cls-4" d="M274.15,409.3c-.66-1.62-6.58-3.52-7.35-5a5.51,5.51,0,0,0-.74-1,6.42,6.42,0,0,1-.79-1.1,4.7,4.7,0,0,0-3-3.57,15.12,15.12,0,0,0-2.07-1.48,102.13,102.13,0,0,0-11.54-5.2c-1.36-.55-2.71-1.2-4-1.78-1.17-.49-1.71-1.4-2.72-2.36-1.76-1.67-3.28-3.71-5.15-5.15-1-.77-2-1.37-3-2-.82-.52-1.7-1.34-2.49-1.82s-1.29-.6-2-1c-1.16-.77-2.21-.48-3.38-.88a26.84,26.84,0,0,1-2.57-1.29,17.73,17.73,0,0,0-2.22-.68,11.47,11.47,0,0,1-3.58-2.33c-.36-.39-.69-.8-1-1.23-.54-.69-1.06-1.41-1.67-2.05a34.15,34.15,0,0,0-3.82-2.85,27.89,27.89,0,0,0-4.7-3c-4-2-8-4-11.59-7.27a32.52,32.52,0,0,1-4.07-4.13c-.82-1.06-1.49-2.36-2.32-3.4-3.06-3.83-6.06-7.27-9.77-9.71-2.66-1.75-5.59-3.34-8.35-4.81-3.36-1.8-6.66-3.59-10.06-5.21-.32-.15-.64-.3-1-.47h0c-2.76-1.36-5.58-2.94-8.24-4.56-3.05-1.85-5.78-4.67-8.6-7.18a67.84,67.84,0,0,0-6.88-5.75c-2.59-1.74-5.33-2.86-7.94-4.47-2.15-1.33-4.22-3-6.41-4.18-1.48-.8-3.08-1-4.56-1.82a13.5,13.5,0,0,1-4.08-3.86c-.65-.9-.94-2-1.56-2.95-.4-.58-1-.85-1.41-1.39a14.82,14.82,0,0,0-1.55-2.16,14.71,14.71,0,0,1-1.54-1.44c-1-1.23-1.5-3-2.38-4.32-1.29-2-3.54-3.43-5.09-5a40,40,0,0,1-3.73-4.3c-1-1.32-1.63-3.08-2.54-4.51-1.31-2.05-2.68-2.65-4.43-3.8a50.19,50.19,0,0,0-5.5-2.64c-1-.49-1.62-1.5-2.55-2.05a12.39,12.39,0,0,1-1.91-.84,18.74,18.74,0,0,0-1.92-1.86c-.46-.29-1-.39-1.49-.65a10.39,10.39,0,0,1-3-2.48c-2.6-3.29-5.63-5.55-8.42-8.51a17.49,17.49,0,0,0-4.19-3,9,9,0,0,1-3.46-3.43,6.57,6.57,0,0,0-2.39-3,22,22,0,0,0-6.5-3.28c-1.38-.45-3.42-1.12-4.58-2.49-.68-.81-.69-2.11-1.41-2.9-2-2.19-5.14-1.25-7.43-1.25a22.21,22.21,0,0,1-3.46,0c-1.24-.19-1.9-1.25-3-2A68.29,68.29,0,0,0,16.74,221c-1.49-.66-2.91-1.56-4.42-2.16s-2.66-.49-4-1.79c-1-.94-2-2.24-2.95-3.1s-1.27-.06-2.44.07a15,15,0,0,0-2.95.69V413.63H276.64C275.87,412.1,274.83,411,274.15,409.3ZM748.71,279.21a48.67,48.67,0,0,0-9.37,4.54c-2.63,1.6-4.7,4.51-7.22,6.39-2.2,1.65-4.65,2.67-6.93,4.13s-4.81,4-7.42,4.05c-1.13,0-2.26,0-3.4,0-1.67,0-3.68,1.47-5,2.94-1.54,1.66-2.58,3.26-4.47,4.1-2.25,1-3.88,3.18-5.94,4.81a16.59,16.59,0,0,0-2.81,3.71,11.25,11.25,0,0,1-2.19,2.38,28.33,28.33,0,0,1-3.51,2.82,12.21,12.21,0,0,1-2.27.69c-.89.33-1.57,1.17-2.49,1.45a18.89,18.89,0,0,0-4.7,2.33c-1.47.9-3.17,1.12-4.7,1.78a90.08,90.08,0,0,0-9.22,5.2,43.67,43.67,0,0,1-5.66,3,11.81,11.81,0,0,1-4.5.39c-3.83,0-7.55-1.28-11.38-.39-4.18,1-8,3.51-11.9,5.57-3.64,1.88-6.81,5.59-10.27,8.05-3.91,2.78-8.7,1.31-12.92,2.17a16.82,16.82,0,0,1-3.75.13c-2.07,0-3.28.69-5,2.32a61.09,61.09,0,0,1-8.43,7.12c-1.16.77-2.32,1.59-3.46,2.43a23.54,23.54,0,0,1-6.59,3.73c-3.87,1.29-7.63,3.13-11.48,4.56a39.43,39.43,0,0,1-5.72,1.71c-4.87,1-9.81.18-14.72,1.28-6.16,1.38-11.35,5.61-17.13,8.7-4.26,2.29-8.86,1.54-13.34,1.54-3.36,0-6.79-.33-10.12.38-6.51,1.41-11.87,6.85-18.26,8.93-5,1.61-8.94,6.61-13.64,9.21-2.44,1.35-4.44,3.49-6.78,5-2,1.31-4.07,2.3-6.09,3.48a52.08,52.08,0,0,1-4.58,2.88c-1.36.6-2.78.44-4.18.87-4.65,1.39-9.34,3.74-13.87,5.81-3.88,1.75-7.76,3-11.65,4.51-1.26.5-2.52,1-3.77,1.35a24.94,24.94,0,0,1-7.73,1.27c-2.64,0-5.28,0-7.92,0a47.79,47.79,0,0,0-14.57,2.6c-3.18,1-6.4,2.14-9.66,2.06a11.74,11.74,0,0,1-2.73-.38c-6.32-1.66-13.15.38-19.05,3.88-2,1.17-3.85,3.23-6,3.64-2.52.49-5-.58-7.48.79a22.35,22.35,0,0,1-5,2.23h0a3.37,3.37,0,0,1-.34.09,14,14,0,0,0-2.72.73c-1.36.65-2.54,2-3.92,2.73a1.3,1.3,0,0,1-.31.16L324,453.46h0l-72.13,36.88L233,500H750V278.74C749.57,278.91,749.14,279.06,748.71,279.21Z" transform="translate(0 -2.37)"/><path class="cls-5" d="M180.36,403a13.39,13.39,0,0,1-3.1.08c-5.95-.12-11.91,0-17.85.08q-4.38.06-8.73,0c-4.66-.09-9.3-.33-13.92-.69h0a192.19,192.19,0,0,1-47.23-9.62c-15.38-5.27-30.21-13.83-46.59-16-11.11-1.46-22.27-2.74-33-6.1-3.26-1-6.63-1.82-10-2.69V272.78a97.55,97.55,0,0,0,8.62,6.05c2.07,1.23,4.5,2,6.69,3a18.55,18.55,0,0,1,5.9,3.8c1.34,1.33,2.81,2.06,3.85,3.68,2,3.21,3.76,5.13,7.44,6.55,2,.75,3.48,2.06,5.23,3.13,1.49.91,3.27,1.37,4.72,2.32a40.58,40.58,0,0,1,8.8,8.6c5,6.5,8.77,15.54,17.1,18.67,3.52,1.32,6.93,3.48,10.34,5.09,2.67,1.28,5.67,3.05,8.61,3.22,4.28.26,8,2.47,12,3.82,3.53,1.17,6.07,4,8.89,6.29,2.47,1.95,3.53,5.7,6.12,7.22,1.46.84,2.9.83,4.27,2s2.38,3.1,4,4c1.15.62,2.8.7,4,1.11a23.55,23.55,0,0,0,5,1.48c1.63.15,2.9-.07,4.48.66,2,.92,3.47,2.63,5.29,3.8,4,2.53,7.31,5.77,11.48,8,2.13,1.16,3.27,3.13,5.1,4.8a38.7,38.7,0,0,1,5,6.18,23.76,23.76,0,0,0,3.89,4.45,11.6,11.6,0,0,0,.95.75c2.52,1.81,5.18,3.15,7.37,5.36C176.68,398.32,180,400.88,180.36,403Z" transform="translate(0 -2.37)"/><path class="cls-6" d="M750,362.62V500H498c-.27-.47-.53-.94-.78-1.42-3.07-5.82-4.94-12.43-6.72-18.71-2.8-9.9-5.42-19.86-7-22a78.44,78.44,0,0,1,23.06,1.82c4.55,1.13,9.18,1.23,13.85,1.67a116.45,116.45,0,0,0,26.65-.25c3.76-.49,7.45-.55,11.17-1.15l.75-.12c2.65-.47,5.4-.37,8.08-.79s4.87-1.57,7.4-2.62c7-2.91,13.92-6.51,21.29-8.61a60.17,60.17,0,0,0,6.17-1.89c3.1-1.22,6-2.81,9.24-3.67,4.94-1.33,10.38-.52,15.48-.61a35.3,35.3,0,0,0,6.76-1c2.22-.51,4.35-1.8,6.54-2.47,1.79-.55,3.82-.75,5.52-1.6s3.1-2.31,5.12-2.92c1.84-.54,3.83-.57,5.64-1.16,3.26-1.06,5.15-4.19,7.89-6.07,3.43-2.35,5.41-5.39,7.77-8.83a97,97,0,0,0,7-11.09c2.18-4.35,7.06-10.52,12.07-11.86,1.69-.46,3.16-.13,4.91-.78s3.29-1.86,5.32-2a22.31,22.31,0,0,0,3.26.09c1.36-.3,1.62-.88,2.76-1.59,1.33-.85,2.95-1.26,4.29-2.1,1.79-1.11,2.91-2.21,5.18-2.42s2.67.62,3.58,2.53a14.42,14.42,0,0,1,1.57,4.63c.21,1.58-.22,2.39.75,3.88,1.17,1.78,3.5,2.72,5,4.24,1,1.06,2.72,2.81,4.54,2,1.58-.73.55-2.78.75-4.3.5-3.78,2-6.9,2.81-10.34a52.34,52.34,0,0,1,1.72-5.08c1.19-3.37,1.8-7.61,4.09-10.46,1.45-1.8,3.2-3.1,4.5-5C747.08,366.3,748.31,363.91,750,362.62Z" transform="translate(0 -2.37)"/><path class="cls-7" d="M698.15,498.47c-5-1.37-10-2.69-15-4.1-3.53-1-6.14-3.47-9.61-4.59a29.09,29.09,0,0,0-6.41-1,13.91,13.91,0,0,1-5.65-1.49C659.1,486,657.2,484,655,482.45a37.78,37.78,0,0,0-21.48-6.67c-7.65,0-15.3-.06-22.95,0a39.78,39.78,0,0,1-15-2.47A62.23,62.23,0,0,0,582.06,470c-3.06-.3-6.18.7-9.21-.17a56.74,56.74,0,0,1-6.07-2.59c-5-2.22-10.16-4.09-15.43-6.1-7.38-2.8-15.35-2.82-22.61-5.93-6.84-2.93-14-2.19-21.37-2.19-4.56,0-10.16.89-14.62-.12-3.69-.83-7.32-2-11.17-2.54-2.88-.44-4.86-.42-7.67-1.5s-5.7-2-8.6-2.84c-4.57-1.39-8.41-1.38-13.15-1.39-3.25,0-7.24.63-10.43.08-4.06-.71-8.63-2.51-12.55-3.89-8.6-3-17.26-7.46-26.4-8.63-4.34-.55-8.68-1.48-13-1.5s-8.21-1.47-12.62-1.43c-4.89,0-10.13.48-15-.12-5.75-.72-12.08-.72-17.67-2.1-5.87-1.44-11.29-2.61-17.41-2.05-4.36.4-7.88,2.08-12.38,1.19a152.11,152.11,0,0,1-15.46-3.79c-5.18-1.62-8.82-5.61-13.29-8.5-10.16-6.58-23.46-5.95-35.05-8.51-5.73-1.27-11.29-3.8-17-5.17-6.16-1.47-12.33-2.66-18.36-4.85-7.34-2.66-15.17-4.95-22-8.81-5.61-3.18-12.26-2-18.6-2-7.2,0-15.17,1-22.29.07-5.06-.65-10.15-1.75-15.25-2.56-4-.64-7.87,0-11.78-1.13-2.86-.84-5.39-1.52-8.3-2.1-7.78-1.54-14.81-6-22.33-8.26-8.85-2.63-17.06-7-26.18-8.77-6.68-1.32-13-3.7-19.56-5.59-4.86-1.41-9.55-4.05-14.38-5.05-4.64-1-8.65-3.19-13.21-4.23A153,153,0,0,1,0,340.34V500H702.71C701.1,499.42,699.54,498.86,698.15,498.47Z" transform="translate(0 -2.37)"/><circle class="cls-8" cx="375" cy="170.22" r="167.86" transform="translate(-10.53 312.66) rotate(-45)"/></g></g></svg>