<svg xmlns="http://www.w3.org/2000/svg" xmlns:xlink="http://www.w3.org/1999/xlink" viewBox="0 0 587.28 372.93"><defs><style>.cls-1{isolation:isolate;}.cls-2{fill:#d2e2ca;}.cls-3{fill:url(#linear-gradient);}.cls-4{mix-blend-mode:overlay;fill:url(#radial-gradient);}</style><linearGradient id="linear-gradient" x1="485.83" y1="296.37" x2="470.66" y2="229.8" gradientUnits="userSpaceOnUse"><stop offset="0" stop-color="#d2e2ca"/><stop offset="1" stop-color="#9fc9b5"/></linearGradient><radialGradient id="radial-gradient" cx="375" cy="170.22" r="167.86" gradientTransform="translate(230.2 -215.31) rotate(45)" gradientUnits="userSpaceOnUse"><stop offset="0.15" stop-color="#fffaf2"/><stop offset="0.24" stop-color="#fffaf2" stop-opacity="0.82"/><stop offset="0.35" stop-color="#fffaf2" stop-opacity="0.61"/><stop offset="0.46" stop-color="#fffaf2" stop-opacity="0.42"/><stop offset="0.58" stop-color="#fffaf2" stop-opacity="0.27"/><stop offset="0.69" stop-color="#fffaf2" stop-opacity="0.15"/><stop offset="0.8" stop-color="#fffaf2" stop-opacity="0.07"/><stop offset="0.9" stop-color="#fffaf2" stop-opacity="0.02"/><stop offset="1" stop-color="#fffaf2" stop-opacity="0"/></radialGradient></defs><g class="cls-1"><g id="BACKGROUND"><path class="cls-2" d="M278.62,281.67c-.26-2-2.8-4.31-3.74-5.4a58,58,0,0,1-4.11-5.37,50.75,50.75,0,0,1-3.23-6,3.69,3.69,0,0,0-.85-1.21c-.61-.51-1.32-.4-2-.62-2-.68-2.82-3.37-4.14-5.43-1.14-1.78-2.35-1.23-3.63-.36a17.13,17.13,0,0,0-4,3.64c-.87,1.08-1.68,2.74-2.94,2.51-1.84-.33-2.94-3.62-4.68-3.91-1.33-.22-2.39,1.33-3.45,2.31-.69.63-1.31,1.37-2,2-2.77,2.42-4.57,6.74-7.4,9.16s-8.77,6.31-11,1.82c-.24-.5-.46-1.88-.68-2.14-.49-.57-1.92-.15-2.45-.08-1.4.2-2.56,1.13-3.89,1.51a5.72,5.72,0,0,1-4.43-.95c-1.57-1.1-2.53-4-4.05-5-1.19-.79-3.67-.17-4.8.39-1.39.68-2.58,1.88-4,2.55a8.09,8.09,0,0,1-4,.72,8.37,8.37,0,0,0-4.87,1.68c-1.28.87-2.41,2.26-3.69,3.12a12.83,12.83,0,0,0-2.75,2.88c-1.22,1.41-2.84-.51-4.41.1a14.05,14.05,0,0,0-4.6,3.45c-1,1.1-1.7,3-2.67,4.19a7,7,0,0,1-3.08,2.13,18.74,18.74,0,0,0-4.47,3L207.58,341l75.72-59.13Z" transform="translate(-162.72 -2.37)"/><path class="cls-3" d="M749.58,172.66a7.65,7.65,0,0,1-1.71-1.17c-.6-.48-1.15-1.18-1.73-1.73-.79-.74-1-.61-1.85-1.11-.56-.32-1.14-1.68-1.7-2a4.74,4.74,0,0,0-2.34-.15,12.7,12.7,0,0,0-5.73.84,26,26,0,0,0-8.08,5.22c-1.54,1.58-3,3.36-4.59,4.86s-3.22,2.45-4.81,4.16c-1.88,2-3.88,4-5.82,5.82-2.33,2.22-4.89,3.46-7.16,5.83a40.52,40.52,0,0,1-6.65,5.32c-1.65,1.1-2.94,2.9-4.52,4.2-3.37,2.77-6.55,6.43-10,9-.24.19-.48.36-.73.53-1.72,1.18-3.37,2.59-5.07,3.85a42.28,42.28,0,0,1-4.54,2.42c-1.6.93-3.22,1.65-4.82,2.56s-2.93,2.4-4.45,3.41c-2,1.32-4,2.45-6,3.66a50.07,50.07,0,0,0-4.54,3c-5.57,4.21-11.91,3.93-17.92,4.93-2.9.49-5.87.39-8.68,1.65A58,58,0,0,0,619,242c-3,1.92-5.68,5-8.42,7.59a34.52,34.52,0,0,1-10.9,6.9c-1,.44-2.43-1.66-3.34-2.29-1.83-1.29-3.28-3.44-5-5.17a26.56,26.56,0,0,1-3.1-4l-.35-.54c-.55-.86-1.43-2.6-2.18-3s-1.39,0-2.07-.22a10,10,0,0,1-1.79-1.24c-1.41-1.08-3-2.18-4.44-3.46a26.29,26.29,0,0,0-4.8-3.83c-1.38-.74-2.61-.43-4-.53s-2.73-1.61-4-2.88a15.65,15.65,0,0,1-1.59-2.33c-.48-.73-1.3-.94-1.87-1.47-1.28-1.18-2.38-3.51-3.94-4.07s-3,.36-4.25,1.2c-3.14,2.05-5.65,5.38-8.55,8-2.29,2.07-5.65,2.63-7.4,6.1-.77,1.54-.62,2.23-2,2.32a5.52,5.52,0,0,1-3.19-.79,8.52,8.52,0,0,1-2.78-2.32c-.45-.54-1-1.44-1.54-1.58-.86-.2-3.54,1.64-4.23,2.51-.91,1.13-.73,1.64-2.14,1.33a8.85,8.85,0,0,1-2.72-1.48c-1.79-1.16-2.65-.18-4.39,0-1.44.15-2.55,1-3.69,2.49a23.33,23.33,0,0,1-2.4,2.62,27,27,0,0,0-5,5.57l26.42,43.51H750V172.68A.86.86,0,0,1,749.58,172.66ZM362.84,261.82a28.37,28.37,0,0,0-3.57-2.7c-.42-.29-.84-.59-1.25-.9a15,15,0,0,1-4-4.22c-.48-.75-1-1.5-1.45-2.24s-.74-1.54-1.11-2.16a14.18,14.18,0,0,0-2.84-2.8,45,45,0,0,1-3.47-3.44,30.68,30.68,0,0,0-2.34-2.91c-.64-.57-1.35-.85-2-1.45l-1.21-1.61a5.18,5.18,0,0,0-1.79-.89,10.68,10.68,0,0,1-1.7-2.11c-1.6-2.44-3.48-4.39-5.78-3.24a6.71,6.71,0,0,0-3,2.47c-1,1.35-1.59,1.85-2.93,1.57-2.32-.49-3.79-3.91-5.92-4.66a4.78,4.78,0,0,0-2.87.22c-.73.32-1.32,1.56-2.08,2-1.94,1-4.34-.57-6.31.32-1.51.69-3.38,3.45-4.55,5.15a51.24,51.24,0,0,0-3.83,6.13,10.41,10.41,0,0,1-2.06,3.06c-1.31,1.23-3.28,1.62-4.8,2.06-2.54.73-4.6,2.34-6.95,3.85-3.23,2.08-6.3,4.7-9.5,6.89-.39.27-1,.33-1.35.66-.81.71-.92,1.72-1.59,2.6-1,1.31-2.18,2.39-3.21,3.75l-.5.64a64.06,64.06,0,0,1-12.05,12.12,18.64,18.64,0,0,0-4.28,3.84,20.7,20.7,0,0,1-2.51,3.28c-.79.67-1.66.81-2.47,1.41-1,.74-2,2-2.94,2.9-1.77,1.65-3.66,2.85-5.23,5a44.38,44.38,0,0,1-3.22,3.64c-1.26,1.41-2.37,3-3.52,4.57a23.71,23.71,0,0,1-2.1,2.24c-.9.95-1.61,2.26-2.51,3.17-1.26,1.28-2.86,1.62-4.13,2.94s-2.95,2.12-4.24,3.65a6.57,6.57,0,0,1-3.22,2.37c-.92.25-1.8-.05-2.71.26-.69.24-1.27.91-2,1.21a19.69,19.69,0,0,1-3.93,1.73c-.78.15-1.53-.2-2.32.07a16.76,16.76,0,0,0-2.69,1.68c-1.4,1-2.77,2-2.77,2L210,339.1l15.26,20.63,11.51,15.57,23.68-11.79L384,302C382.62,301.79,363.94,262.86,362.84,261.82Z" transform="translate(-162.72 -2.37)"/><circle class="cls-4" cx="375" cy="170.22" r="167.86" transform="translate(-173.25 312.66) rotate(-45)"/></g></g></svg>